<mxfile host="app.diagrams.net" agent="Mozilla/5.0 (Windows NT 10.0; Win64; x64) AppleWebKit/537.36 (KHTML, like Gecko) Chrome/140.0.0.0 Safari/537.36 Edg/140.0.0.0" version="28.2.3">
  <diagram name="Page-1" id="RWWLfxjJwSBP9Ewld-gn">
    <mxGraphModel dx="1856" dy="608" grid="1" gridSize="10" guides="1" tooltips="1" connect="1" arrows="1" fold="1" page="1" pageScale="1" pageWidth="850" pageHeight="1100" math="0" shadow="0">
      <root>
        <mxCell id="0" />
        <mxCell id="1" parent="0" />
        <mxCell id="G8ryao7D33Jbl2aVk4C9-1" value="API" style="shape=folder;fontStyle=1;spacingTop=10;tabWidth=180;tabHeight=20;tabPosition=left;html=1;whiteSpace=wrap;fillColor=#99FFFF;strokeColor=default;fillStyle=auto;" vertex="1" parent="1">
          <mxGeometry x="-60" y="80" width="910" height="50" as="geometry" />
        </mxCell>
        <mxCell id="G8ryao7D33Jbl2aVk4C9-2" value="Registration" style="shape=folder;fontStyle=1;spacingTop=10;tabWidth=40;tabHeight=14;tabPosition=left;html=1;whiteSpace=wrap;fillColor=light-dark(#828282,#202020);strokeColor=#36393d;fillStyle=solid;" vertex="1" parent="1">
          <mxGeometry x="10" y="185" width="90" height="95" as="geometry" />
        </mxCell>
        <mxCell id="G8ryao7D33Jbl2aVk4C9-3" value="&lt;font style=&quot;font-size: 10px;&quot;&gt;User Access&lt;/font&gt;" style="shape=folder;fontStyle=1;spacingTop=10;tabWidth=40;tabHeight=14;tabPosition=left;html=1;whiteSpace=wrap;fillColor=light-dark(#FF66FF,#512D2B);strokeColor=default;" vertex="1" parent="1">
          <mxGeometry x="200" y="195" width="100" height="75" as="geometry" />
        </mxCell>
        <mxCell id="G8ryao7D33Jbl2aVk4C9-6" value="&lt;font style=&quot;font-size: 10px;&quot;&gt;Meetings&lt;/font&gt;" style="shape=folder;fontStyle=1;spacingTop=10;tabWidth=40;tabHeight=14;tabPosition=left;html=1;whiteSpace=wrap;fillColor=#cdeb8b;strokeColor=#36393d;" vertex="1" parent="1">
          <mxGeometry x="375" y="195" width="100" height="80" as="geometry" />
        </mxCell>
        <mxCell id="G8ryao7D33Jbl2aVk4C9-7" value="&lt;font style=&quot;font-size: 10px;&quot;&gt;Adminstration&lt;/font&gt;" style="shape=folder;fontStyle=1;spacingTop=10;tabWidth=40;tabHeight=14;tabPosition=left;html=1;whiteSpace=wrap;fillColor=#ffcc99;strokeColor=#36393d;" vertex="1" parent="1">
          <mxGeometry x="540" y="200" width="100" height="80" as="geometry" />
        </mxCell>
        <mxCell id="G8ryao7D33Jbl2aVk4C9-8" value="&lt;font style=&quot;font-size: 10px;&quot;&gt;Payments&lt;/font&gt;" style="shape=folder;fontStyle=1;spacingTop=10;tabWidth=40;tabHeight=14;tabPosition=left;html=1;whiteSpace=wrap;fillColor=light-dark(#F36D6D,#FF9090);strokeColor=default;" vertex="1" parent="1">
          <mxGeometry x="735" y="195" width="90" height="85" as="geometry" />
        </mxCell>
        <mxCell id="G8ryao7D33Jbl2aVk4C9-9" value="" style="html=1;verticalAlign=bottom;endArrow=open;dashed=1;endSize=8;curved=0;rounded=0;" edge="1" parent="1" source="G8ryao7D33Jbl2aVk4C9-2" target="G8ryao7D33Jbl2aVk4C9-3">
          <mxGeometry relative="1" as="geometry">
            <mxPoint x="300" y="360" as="sourcePoint" />
            <mxPoint x="220" y="360" as="targetPoint" />
          </mxGeometry>
        </mxCell>
        <mxCell id="G8ryao7D33Jbl2aVk4C9-10" value="" style="html=1;verticalAlign=bottom;endArrow=open;dashed=1;endSize=8;curved=0;rounded=0;exitX=0.302;exitY=1.044;exitDx=0;exitDy=0;exitPerimeter=0;entryX=0;entryY=0;entryDx=20;entryDy=0;entryPerimeter=0;" edge="1" parent="1" source="G8ryao7D33Jbl2aVk4C9-1" target="G8ryao7D33Jbl2aVk4C9-3">
          <mxGeometry relative="1" as="geometry">
            <mxPoint x="200" y="440" as="sourcePoint" />
            <mxPoint x="260" y="441" as="targetPoint" />
          </mxGeometry>
        </mxCell>
        <mxCell id="G8ryao7D33Jbl2aVk4C9-11" value="" style="html=1;verticalAlign=bottom;endArrow=open;dashed=1;endSize=8;curved=0;rounded=0;exitX=0.537;exitY=0.98;exitDx=0;exitDy=0;exitPerimeter=0;" edge="1" parent="1" source="G8ryao7D33Jbl2aVk4C9-1" target="G8ryao7D33Jbl2aVk4C9-6">
          <mxGeometry relative="1" as="geometry">
            <mxPoint x="310" y="140" as="sourcePoint" />
            <mxPoint x="370" y="141" as="targetPoint" />
          </mxGeometry>
        </mxCell>
        <mxCell id="G8ryao7D33Jbl2aVk4C9-12" value="" style="html=1;verticalAlign=bottom;endArrow=open;dashed=1;endSize=8;curved=0;rounded=0;entryX=0;entryY=0;entryDx=20;entryDy=0;entryPerimeter=0;exitX=0.681;exitY=1.012;exitDx=0;exitDy=0;exitPerimeter=0;" edge="1" parent="1" source="G8ryao7D33Jbl2aVk4C9-1" target="G8ryao7D33Jbl2aVk4C9-7">
          <mxGeometry relative="1" as="geometry">
            <mxPoint x="560" y="140" as="sourcePoint" />
            <mxPoint x="620" y="161" as="targetPoint" />
          </mxGeometry>
        </mxCell>
        <mxCell id="G8ryao7D33Jbl2aVk4C9-13" value="" style="html=1;verticalAlign=bottom;endArrow=open;dashed=1;endSize=8;curved=0;rounded=0;exitX=0.921;exitY=1.012;exitDx=0;exitDy=0;exitPerimeter=0;" edge="1" parent="1" source="G8ryao7D33Jbl2aVk4C9-1" target="G8ryao7D33Jbl2aVk4C9-8">
          <mxGeometry relative="1" as="geometry">
            <mxPoint x="160" y="251" as="sourcePoint" />
            <mxPoint x="220" y="252" as="targetPoint" />
          </mxGeometry>
        </mxCell>
        <mxCell id="G8ryao7D33Jbl2aVk4C9-15" value="&lt;font style=&quot;font-size: 10px;&quot;&gt;Registration Data&lt;/font&gt;" style="swimlane;childLayout=stackLayout;horizontal=1;startSize=30;horizontalStack=0;rounded=1;fontSize=14;fontStyle=0;strokeWidth=1;resizeParent=0;resizeLast=1;shadow=0;dashed=0;align=center;arcSize=4;whiteSpace=wrap;html=1;swimlaneLine=1;glass=0;gradientColor=none;swimlaneFillColor=#828282;deletable=1;swimlaneBody=1;swimlaneHead=1;absoluteArcSize=0;fillColor=#828282;fillStyle=auto;" vertex="1" parent="1">
          <mxGeometry x="-20" y="360" width="110" height="70" as="geometry" />
        </mxCell>
        <mxCell id="G8ryao7D33Jbl2aVk4C9-17" value="&lt;span style=&quot;font-size: 10px;&quot;&gt;User Access Data&lt;/span&gt;" style="swimlane;childLayout=stackLayout;horizontal=1;startSize=30;horizontalStack=0;rounded=1;fontSize=14;fontStyle=0;strokeWidth=1;resizeParent=0;resizeLast=1;shadow=0;dashed=0;align=center;arcSize=4;whiteSpace=wrap;html=1;swimlaneLine=1;glass=0;gradientColor=none;swimlaneFillColor=#FF66FF;deletable=1;swimlaneBody=1;swimlaneHead=1;absoluteArcSize=0;fillColor=#FF66FF;" vertex="1" parent="1">
          <mxGeometry x="140" y="360" width="120" height="70" as="geometry" />
        </mxCell>
        <mxCell id="G8ryao7D33Jbl2aVk4C9-18" value="&lt;font style=&quot;font-size: 10px;&quot;&gt;Meetings Data&lt;/font&gt;" style="swimlane;childLayout=stackLayout;horizontal=1;startSize=30;horizontalStack=0;rounded=1;fontSize=14;fontStyle=0;strokeWidth=1;resizeParent=0;resizeLast=1;shadow=0;dashed=0;align=center;arcSize=4;whiteSpace=wrap;html=1;swimlaneLine=1;glass=0;swimlaneFillColor=#CDEB8B;deletable=1;swimlaneBody=1;swimlaneHead=1;absoluteArcSize=0;fillColor=#CDEB8B;strokeColor=#36393d;" vertex="1" parent="1">
          <mxGeometry x="325" y="360" width="100" height="70" as="geometry" />
        </mxCell>
        <mxCell id="G8ryao7D33Jbl2aVk4C9-20" value="&lt;span style=&quot;font-size: 10px;&quot;&gt;Adminstration Data&lt;/span&gt;" style="swimlane;childLayout=stackLayout;horizontal=1;startSize=30;horizontalStack=0;rounded=1;fontSize=14;fontStyle=0;strokeWidth=1;resizeParent=0;resizeLast=1;shadow=0;dashed=0;align=center;arcSize=4;whiteSpace=wrap;html=1;swimlaneLine=1;glass=0;swimlaneFillColor=#FFCC99;deletable=1;swimlaneBody=1;swimlaneHead=1;absoluteArcSize=0;fillColor=#ffcc99;strokeColor=#36393d;gradientColor=none;" vertex="1" parent="1">
          <mxGeometry x="490" y="360" width="100" height="70" as="geometry" />
        </mxCell>
        <mxCell id="G8ryao7D33Jbl2aVk4C9-21" value="&lt;font style=&quot;font-size: 10px;&quot;&gt;Payments Data&lt;/font&gt;" style="swimlane;childLayout=stackLayout;horizontal=1;startSize=30;horizontalStack=0;rounded=1;fontSize=14;fontStyle=0;strokeWidth=1;resizeParent=0;resizeLast=1;shadow=0;dashed=0;align=center;arcSize=4;whiteSpace=wrap;html=1;swimlaneLine=1;glass=0;gradientColor=none;swimlaneFillColor=#F36D6D;deletable=1;swimlaneBody=1;swimlaneHead=1;absoluteArcSize=0;fillColor=#F36D6D;" vertex="1" parent="1">
          <mxGeometry x="680" y="360" width="110" height="70" as="geometry" />
        </mxCell>
        <mxCell id="G8ryao7D33Jbl2aVk4C9-23" value="" style="html=1;verticalAlign=bottom;endArrow=open;dashed=1;endSize=8;curved=0;rounded=0;exitX=0.25;exitY=1;exitDx=0;exitDy=0;exitPerimeter=0;" edge="1" parent="1" source="G8ryao7D33Jbl2aVk4C9-2" target="G8ryao7D33Jbl2aVk4C9-15">
          <mxGeometry relative="1" as="geometry">
            <mxPoint x="480" y="300" as="sourcePoint" />
            <mxPoint x="63" y="360" as="targetPoint" />
          </mxGeometry>
        </mxCell>
        <mxCell id="G8ryao7D33Jbl2aVk4C9-24" value="" style="html=1;verticalAlign=bottom;endArrow=open;dashed=1;endSize=8;curved=0;rounded=0;entryX=0.5;entryY=0;entryDx=0;entryDy=0;exitX=0;exitY=0;exitDx=0;exitDy=75;exitPerimeter=0;" edge="1" parent="1" source="G8ryao7D33Jbl2aVk4C9-3" target="G8ryao7D33Jbl2aVk4C9-17">
          <mxGeometry relative="1" as="geometry">
            <mxPoint x="250" y="280" as="sourcePoint" />
            <mxPoint x="251" y="350" as="targetPoint" />
          </mxGeometry>
        </mxCell>
        <mxCell id="G8ryao7D33Jbl2aVk4C9-25" value="" style="html=1;verticalAlign=bottom;endArrow=open;dashed=1;endSize=8;curved=0;rounded=0;entryX=0.5;entryY=0;entryDx=0;entryDy=0;exitX=0;exitY=0;exitDx=0;exitDy=80;exitPerimeter=0;" edge="1" parent="1" source="G8ryao7D33Jbl2aVk4C9-6" target="G8ryao7D33Jbl2aVk4C9-18">
          <mxGeometry relative="1" as="geometry">
            <mxPoint x="490" y="310" as="sourcePoint" />
            <mxPoint x="491" y="380" as="targetPoint" />
          </mxGeometry>
        </mxCell>
        <mxCell id="G8ryao7D33Jbl2aVk4C9-26" value="" style="html=1;verticalAlign=bottom;endArrow=open;dashed=1;endSize=8;curved=0;rounded=0;entryX=0.5;entryY=0;entryDx=0;entryDy=0;exitX=0;exitY=0;exitDx=0;exitDy=80;exitPerimeter=0;" edge="1" parent="1" source="G8ryao7D33Jbl2aVk4C9-7" target="G8ryao7D33Jbl2aVk4C9-20">
          <mxGeometry relative="1" as="geometry">
            <mxPoint x="530" y="310" as="sourcePoint" />
            <mxPoint x="531" y="380" as="targetPoint" />
          </mxGeometry>
        </mxCell>
        <mxCell id="G8ryao7D33Jbl2aVk4C9-28" value="" style="html=1;verticalAlign=bottom;endArrow=open;dashed=1;endSize=8;curved=0;rounded=0;exitX=0;exitY=0;exitDx=0;exitDy=85;exitPerimeter=0;" edge="1" parent="1" source="G8ryao7D33Jbl2aVk4C9-8" target="G8ryao7D33Jbl2aVk4C9-21">
          <mxGeometry relative="1" as="geometry">
            <mxPoint x="810" y="300" as="sourcePoint" />
            <mxPoint x="811" y="370" as="targetPoint" />
          </mxGeometry>
        </mxCell>
        <mxCell id="G8ryao7D33Jbl2aVk4C9-29" value="In Memory Events Bus" style="shape=folder;fontStyle=1;spacingTop=10;tabWidth=180;tabHeight=20;tabPosition=left;html=1;whiteSpace=wrap;fillColor=#3399FF;strokeColor=#36393d;fillStyle=auto;" vertex="1" parent="1">
          <mxGeometry x="-60" y="470" width="920" height="90" as="geometry" />
        </mxCell>
        <mxCell id="G8ryao7D33Jbl2aVk4C9-30" value="API" style="shape=folder;fontStyle=1;spacingTop=10;tabWidth=180;tabHeight=20;tabPosition=left;html=1;whiteSpace=wrap;fillColor=#99FFFF;strokeColor=default;fillStyle=auto;" vertex="1" parent="1">
          <mxGeometry x="-40" y="570" width="880" height="90" as="geometry" />
        </mxCell>
        <mxCell id="G8ryao7D33Jbl2aVk4C9-32" value="" style="rounded=1;arcSize=10;whiteSpace=wrap;html=1;align=center;perimeterSpacing=0;fillColor=#99FF99;strokeColor=#2D7600;fontColor=#ffffff;" vertex="1" parent="1">
          <mxGeometry x="-40" y="680" width="430" height="640" as="geometry" />
        </mxCell>
        <mxCell id="G8ryao7D33Jbl2aVk4C9-35" value="" style="rounded=1;arcSize=10;whiteSpace=wrap;html=1;align=center;perimeterSpacing=0;fillColor=#ffe6cc;strokeColor=#d79b00;" vertex="1" parent="1">
          <mxGeometry x="410" y="670" width="430" height="640" as="geometry" />
        </mxCell>
        <mxCell id="G8ryao7D33Jbl2aVk4C9-36" value="Meetings" style="text;html=1;align=center;verticalAlign=middle;whiteSpace=wrap;rounded=0;" vertex="1" parent="1">
          <mxGeometry x="-20" y="690" width="60" height="30" as="geometry" />
        </mxCell>
        <mxCell id="G8ryao7D33Jbl2aVk4C9-37" value="Adminstration" style="text;html=1;align=center;verticalAlign=middle;whiteSpace=wrap;rounded=0;" vertex="1" parent="1">
          <mxGeometry x="740" y="690" width="85" height="30" as="geometry" />
        </mxCell>
        <mxCell id="G8ryao7D33Jbl2aVk4C9-38" value="Meeting.Infrastructure" style="shape=folder;fontStyle=1;spacingTop=10;tabWidth=40;tabHeight=14;tabPosition=left;html=1;whiteSpace=wrap;fillColor=#33FF33;" vertex="1" parent="1">
          <mxGeometry x="-20" y="740" width="140" height="560" as="geometry" />
        </mxCell>
        <mxCell id="G8ryao7D33Jbl2aVk4C9-39" value="&lt;font style=&quot;font-size: 10px;&quot;&gt;Meeting.Application&lt;/font&gt;" style="shape=folder;fontStyle=1;spacingTop=10;tabWidth=40;tabHeight=14;tabPosition=left;html=1;whiteSpace=wrap;fillColor=#33FF33;" vertex="1" parent="1">
          <mxGeometry x="180" y="720" width="195" height="70" as="geometry" />
        </mxCell>
        <mxCell id="G8ryao7D33Jbl2aVk4C9-41" value="&lt;font style=&quot;font-size: 10px;&quot;&gt;Meeting.IntegrationEvents&lt;/font&gt;" style="shape=folder;fontStyle=1;spacingTop=10;tabWidth=40;tabHeight=14;tabPosition=left;html=1;whiteSpace=wrap;fillColor=#33FF33;" vertex="1" parent="1">
          <mxGeometry x="250" y="982.5" width="135" height="75" as="geometry" />
        </mxCell>
        <mxCell id="G8ryao7D33Jbl2aVk4C9-42" value="&lt;font style=&quot;font-size: 10px;&quot;&gt;Meeting.Domain&lt;/font&gt;" style="shape=folder;fontStyle=1;spacingTop=10;tabWidth=40;tabHeight=14;tabPosition=left;html=1;whiteSpace=wrap;fillColor=#33FF33;" vertex="1" parent="1">
          <mxGeometry x="170" y="1130" width="120" height="90" as="geometry" />
        </mxCell>
        <mxCell id="G8ryao7D33Jbl2aVk4C9-43" value="&lt;font style=&quot;font-size: 10px;&quot;&gt;Adminstration.Application&lt;/font&gt;" style="shape=folder;fontStyle=1;spacingTop=10;tabWidth=40;tabHeight=14;tabPosition=left;html=1;whiteSpace=wrap;fillColor=#FFB366;strokeColor=default;" vertex="1" parent="1">
          <mxGeometry x="420" y="720" width="185" height="70" as="geometry" />
        </mxCell>
        <mxCell id="G8ryao7D33Jbl2aVk4C9-44" value="&lt;font style=&quot;font-size: 10px;&quot;&gt;Adminstration.Infrastructure&lt;/font&gt;" style="shape=folder;fontStyle=1;spacingTop=10;tabWidth=40;tabHeight=14;tabPosition=left;html=1;whiteSpace=wrap;fillColor=#FFB366;strokeColor=default;" vertex="1" parent="1">
          <mxGeometry x="685" y="720" width="140" height="570" as="geometry" />
        </mxCell>
        <mxCell id="G8ryao7D33Jbl2aVk4C9-45" value="&lt;font style=&quot;font-size: 10px;&quot;&gt;Adminstration.IntegrationEvents&lt;/font&gt;" style="shape=folder;fontStyle=1;spacingTop=10;tabWidth=40;tabHeight=14;tabPosition=left;html=1;whiteSpace=wrap;fillColor=#FFB366;strokeColor=default;" vertex="1" parent="1">
          <mxGeometry x="430" y="912.5" width="165" height="70" as="geometry" />
        </mxCell>
        <mxCell id="G8ryao7D33Jbl2aVk4C9-47" value="&lt;font style=&quot;font-size: 10px;&quot;&gt;Adminstration.Domain&lt;/font&gt;" style="shape=folder;fontStyle=1;spacingTop=10;tabWidth=40;tabHeight=14;tabPosition=left;html=1;whiteSpace=wrap;fillColor=#FFB366;strokeColor=default;" vertex="1" parent="1">
          <mxGeometry x="540" y="1100" width="125" height="70" as="geometry" />
        </mxCell>
        <mxCell id="G8ryao7D33Jbl2aVk4C9-48" value="" style="html=1;verticalAlign=bottom;endArrow=open;dashed=1;endSize=8;curved=0;rounded=0;exitX=0.101;exitY=1.056;exitDx=0;exitDy=0;exitPerimeter=0;" edge="1" parent="1" source="G8ryao7D33Jbl2aVk4C9-30" target="G8ryao7D33Jbl2aVk4C9-38">
          <mxGeometry relative="1" as="geometry">
            <mxPoint x="60" y="670" as="sourcePoint" />
            <mxPoint x="61.5" y="720" as="targetPoint" />
          </mxGeometry>
        </mxCell>
        <mxCell id="G8ryao7D33Jbl2aVk4C9-50" value="" style="html=1;verticalAlign=bottom;endArrow=open;dashed=1;endSize=8;curved=0;rounded=0;exitX=0.101;exitY=1.056;exitDx=0;exitDy=0;exitPerimeter=0;entryX=0.365;entryY=0.209;entryDx=0;entryDy=0;entryPerimeter=0;" edge="1" parent="1" target="G8ryao7D33Jbl2aVk4C9-39">
          <mxGeometry relative="1" as="geometry">
            <mxPoint x="249.62" y="659.96" as="sourcePoint" />
            <mxPoint x="249.62" y="734.96" as="targetPoint" />
          </mxGeometry>
        </mxCell>
        <mxCell id="G8ryao7D33Jbl2aVk4C9-51" value="" style="html=1;verticalAlign=bottom;endArrow=open;dashed=1;endSize=8;curved=0;rounded=0;exitX=0.101;exitY=1.056;exitDx=0;exitDy=0;exitPerimeter=0;entryX=0.365;entryY=0.209;entryDx=0;entryDy=0;entryPerimeter=0;" edge="1" parent="1">
          <mxGeometry relative="1" as="geometry">
            <mxPoint x="475" y="660" as="sourcePoint" />
            <mxPoint x="476.38" y="735.04" as="targetPoint" />
          </mxGeometry>
        </mxCell>
        <mxCell id="G8ryao7D33Jbl2aVk4C9-53" value="" style="html=1;verticalAlign=bottom;endArrow=open;dashed=1;endSize=8;curved=0;rounded=0;exitX=0.101;exitY=1.056;exitDx=0;exitDy=0;exitPerimeter=0;entryX=0.365;entryY=0.209;entryDx=0;entryDy=0;entryPerimeter=0;" edge="1" parent="1">
          <mxGeometry relative="1" as="geometry">
            <mxPoint x="735" y="660" as="sourcePoint" />
            <mxPoint x="736.3800000000001" y="735.04" as="targetPoint" />
          </mxGeometry>
        </mxCell>
        <mxCell id="G8ryao7D33Jbl2aVk4C9-55" value="" style="html=1;verticalAlign=bottom;endArrow=open;dashed=1;endSize=8;curved=0;rounded=0;entryX=0;entryY=0;entryDx=185;entryDy=42;entryPerimeter=0;exitX=0.01;exitY=0.075;exitDx=0;exitDy=0;exitPerimeter=0;" edge="1" parent="1" source="G8ryao7D33Jbl2aVk4C9-44" target="G8ryao7D33Jbl2aVk4C9-43">
          <mxGeometry relative="1" as="geometry">
            <mxPoint x="620" y="800" as="sourcePoint" />
            <mxPoint x="621.3800000000001" y="875.04" as="targetPoint" />
          </mxGeometry>
        </mxCell>
        <mxCell id="G8ryao7D33Jbl2aVk4C9-57" value="" style="html=1;verticalAlign=bottom;endArrow=open;dashed=1;endSize=8;curved=0;rounded=0;exitX=0;exitY=0;exitDx=185;exitDy=70;exitPerimeter=0;" edge="1" parent="1" source="G8ryao7D33Jbl2aVk4C9-43" target="G8ryao7D33Jbl2aVk4C9-47">
          <mxGeometry relative="1" as="geometry">
            <mxPoint x="617.8" y="841" as="sourcePoint" />
            <mxPoint x="561.8" y="840" as="targetPoint" />
          </mxGeometry>
        </mxCell>
        <mxCell id="G8ryao7D33Jbl2aVk4C9-58" value="" style="html=1;verticalAlign=bottom;endArrow=open;dashed=1;endSize=8;curved=0;rounded=0;exitX=0.5;exitY=1;exitDx=0;exitDy=0;exitPerimeter=0;" edge="1" parent="1" source="G8ryao7D33Jbl2aVk4C9-43" target="G8ryao7D33Jbl2aVk4C9-45">
          <mxGeometry relative="1" as="geometry">
            <mxPoint x="571" y="841" as="sourcePoint" />
            <mxPoint x="490" y="840" as="targetPoint" />
          </mxGeometry>
        </mxCell>
        <mxCell id="G8ryao7D33Jbl2aVk4C9-59" value="" style="html=1;verticalAlign=bottom;endArrow=open;dashed=1;endSize=8;curved=0;rounded=0;entryX=0;entryY=0;entryDx=0;entryDy=42;entryPerimeter=0;exitX=1.034;exitY=0.039;exitDx=0;exitDy=0;exitPerimeter=0;" edge="1" parent="1" source="G8ryao7D33Jbl2aVk4C9-38" target="G8ryao7D33Jbl2aVk4C9-39">
          <mxGeometry relative="1" as="geometry">
            <mxPoint x="381" y="871" as="sourcePoint" />
            <mxPoint x="300" y="870" as="targetPoint" />
          </mxGeometry>
        </mxCell>
        <mxCell id="G8ryao7D33Jbl2aVk4C9-60" value="" style="html=1;verticalAlign=bottom;endArrow=open;dashed=1;endSize=8;curved=0;rounded=0;exitX=0.25;exitY=1;exitDx=0;exitDy=0;exitPerimeter=0;" edge="1" parent="1" source="G8ryao7D33Jbl2aVk4C9-39" target="G8ryao7D33Jbl2aVk4C9-42">
          <mxGeometry relative="1" as="geometry">
            <mxPoint x="281" y="861" as="sourcePoint" />
            <mxPoint x="200" y="860" as="targetPoint" />
          </mxGeometry>
        </mxCell>
        <mxCell id="G8ryao7D33Jbl2aVk4C9-61" value="" style="html=1;verticalAlign=bottom;endArrow=open;dashed=1;endSize=8;curved=0;rounded=0;entryX=0;entryY=0;entryDx=0;entryDy=33;entryPerimeter=0;exitX=0;exitY=0;exitDx=140;exitDy=423.5;exitPerimeter=0;" edge="1" parent="1" source="G8ryao7D33Jbl2aVk4C9-38" target="G8ryao7D33Jbl2aVk4C9-42">
          <mxGeometry relative="1" as="geometry">
            <mxPoint x="331" y="1191" as="sourcePoint" />
            <mxPoint x="250" y="1190" as="targetPoint" />
          </mxGeometry>
        </mxCell>
        <mxCell id="G8ryao7D33Jbl2aVk4C9-62" value="" style="html=1;verticalAlign=bottom;endArrow=open;dashed=1;endSize=8;curved=0;rounded=0;exitX=0.451;exitY=1.02;exitDx=0;exitDy=0;exitPerimeter=0;entryX=0;entryY=0;entryDx=20;entryDy=0;entryPerimeter=0;" edge="1" parent="1" source="G8ryao7D33Jbl2aVk4C9-39" target="G8ryao7D33Jbl2aVk4C9-41">
          <mxGeometry relative="1" as="geometry">
            <mxPoint x="381" y="721" as="sourcePoint" />
            <mxPoint x="300" y="720" as="targetPoint" />
          </mxGeometry>
        </mxCell>
        <mxCell id="G8ryao7D33Jbl2aVk4C9-65" value="" style="html=1;verticalAlign=bottom;endArrow=open;dashed=1;endSize=8;curved=0;rounded=0;entryX=0;entryY=0;entryDx=0;entryDy=42;entryPerimeter=0;exitX=0.75;exitY=1;exitDx=0;exitDy=0;exitPerimeter=0;" edge="1" parent="1" source="G8ryao7D33Jbl2aVk4C9-39" target="G8ryao7D33Jbl2aVk4C9-45">
          <mxGeometry relative="1" as="geometry">
            <mxPoint x="441" y="801" as="sourcePoint" />
            <mxPoint x="360" y="800" as="targetPoint" />
            <Array as="points">
              <mxPoint x="330" y="955" />
            </Array>
          </mxGeometry>
        </mxCell>
        <mxCell id="G8ryao7D33Jbl2aVk4C9-66" value="" style="html=1;verticalAlign=bottom;endArrow=open;dashed=1;endSize=8;curved=0;rounded=0;exitX=0;exitY=0;exitDx=0;exitDy=70;exitPerimeter=0;entryX=0.833;entryY=0.204;entryDx=0;entryDy=0;entryPerimeter=0;" edge="1" parent="1" source="G8ryao7D33Jbl2aVk4C9-43" target="G8ryao7D33Jbl2aVk4C9-41">
          <mxGeometry relative="1" as="geometry">
            <mxPoint x="696" y="773" as="sourcePoint" />
            <mxPoint x="615" y="772" as="targetPoint" />
            <Array as="points">
              <mxPoint x="362" y="880" />
            </Array>
          </mxGeometry>
        </mxCell>
        <mxCell id="G8ryao7D33Jbl2aVk4C9-68" value="&lt;span style=&quot;font-size: 10px;&quot;&gt;Adminstration Data&lt;/span&gt;" style="swimlane;childLayout=stackLayout;horizontal=1;startSize=30;horizontalStack=0;rounded=1;fontSize=14;fontStyle=0;strokeWidth=1;resizeParent=0;resizeLast=1;shadow=0;dashed=0;align=center;arcSize=4;whiteSpace=wrap;html=1;swimlaneLine=1;glass=0;swimlaneFillColor=#FFB366;deletable=1;swimlaneBody=1;swimlaneHead=1;absoluteArcSize=0;fillColor=#FFB366;strokeColor=#36393d;gradientColor=none;" vertex="1" parent="1">
          <mxGeometry x="635" y="1340" width="100" height="70" as="geometry">
            <mxRectangle x="635" y="1340" width="130" height="30" as="alternateBounds" />
          </mxGeometry>
        </mxCell>
        <mxCell id="G8ryao7D33Jbl2aVk4C9-69" value="&lt;font style=&quot;font-size: 10px;&quot;&gt;Meetings Data&lt;/font&gt;" style="swimlane;childLayout=stackLayout;horizontal=1;startSize=30;horizontalStack=0;rounded=1;fontSize=14;fontStyle=0;strokeWidth=1;resizeParent=0;resizeLast=1;shadow=0;dashed=0;align=center;arcSize=4;whiteSpace=wrap;html=1;swimlaneLine=1;glass=0;swimlaneFillColor=#33FF33;deletable=1;swimlaneBody=1;swimlaneHead=1;absoluteArcSize=0;fillColor=#33FF33;strokeColor=#36393d;" vertex="1" parent="1">
          <mxGeometry x="50" y="1340" width="100" height="70" as="geometry" />
        </mxCell>
        <mxCell id="G8ryao7D33Jbl2aVk4C9-70" value="In Memory Events Bus" style="shape=folder;fontStyle=1;spacingTop=10;tabWidth=180;tabHeight=20;tabPosition=left;html=1;whiteSpace=wrap;fillColor=#3399FF;strokeColor=#36393d;fillStyle=auto;" vertex="1" parent="1">
          <mxGeometry x="-60" y="1420" width="920" height="90" as="geometry" />
        </mxCell>
        <mxCell id="G8ryao7D33Jbl2aVk4C9-71" value="" style="html=1;verticalAlign=bottom;endArrow=open;dashed=1;endSize=8;curved=0;rounded=0;entryX=0.364;entryY=-0.037;entryDx=0;entryDy=0;entryPerimeter=0;exitX=0.75;exitY=1;exitDx=0;exitDy=0;exitPerimeter=0;" edge="1" parent="1" source="G8ryao7D33Jbl2aVk4C9-38" target="G8ryao7D33Jbl2aVk4C9-69">
          <mxGeometry relative="1" as="geometry">
            <mxPoint x="240" y="1361" as="sourcePoint" />
            <mxPoint x="290" y="1360" as="targetPoint" />
          </mxGeometry>
        </mxCell>
        <mxCell id="G8ryao7D33Jbl2aVk4C9-72" value="" style="html=1;verticalAlign=bottom;endArrow=open;dashed=1;endSize=8;curved=0;rounded=0;entryX=0.082;entryY=0;entryDx=0;entryDy=0;entryPerimeter=0;exitX=0.25;exitY=1;exitDx=0;exitDy=0;exitPerimeter=0;" edge="1" parent="1" source="G8ryao7D33Jbl2aVk4C9-38" target="G8ryao7D33Jbl2aVk4C9-70">
          <mxGeometry relative="1" as="geometry">
            <mxPoint x="220" y="1360" as="sourcePoint" />
            <mxPoint x="221" y="1397" as="targetPoint" />
          </mxGeometry>
        </mxCell>
        <mxCell id="G8ryao7D33Jbl2aVk4C9-73" value="" style="html=1;verticalAlign=bottom;endArrow=open;dashed=1;endSize=8;curved=0;rounded=0;entryX=0.923;entryY=0.233;entryDx=0;entryDy=0;entryPerimeter=0;exitX=0.75;exitY=1;exitDx=0;exitDy=0;exitPerimeter=0;" edge="1" parent="1" source="G8ryao7D33Jbl2aVk4C9-44" target="G8ryao7D33Jbl2aVk4C9-70">
          <mxGeometry relative="1" as="geometry">
            <mxPoint x="800" y="1360" as="sourcePoint" />
            <mxPoint x="801" y="1397" as="targetPoint" />
          </mxGeometry>
        </mxCell>
        <mxCell id="G8ryao7D33Jbl2aVk4C9-74" value="" style="html=1;verticalAlign=bottom;endArrow=open;dashed=1;endSize=8;curved=0;rounded=0;exitX=0.25;exitY=1;exitDx=0;exitDy=0;exitPerimeter=0;" edge="1" parent="1" source="G8ryao7D33Jbl2aVk4C9-44">
          <mxGeometry relative="1" as="geometry">
            <mxPoint x="850" y="1360" as="sourcePoint" />
            <mxPoint x="720" y="1340" as="targetPoint" />
          </mxGeometry>
        </mxCell>
      </root>
    </mxGraphModel>
  </diagram>
</mxfile>
